# xmcd
#
# Track frame offsets:
#	150
#	38967
#	91870
#	121851
#	161469
#	217209
#
# Disc length: 3796 seconds
#
# Revision: 0
# Processed by: cddbd v1.5.2PL0 Copyright (c) Steve Scherf et al.
# Submitted via: audiograbber 1.83.01
#
DISCID=4a0ed206
DTITLE=Grateful Dead - 93-06-05 Giants Stadium, East Rutherford NJ
DYEAR=1900
DGENRE=
TTITLE0=Scarlet Begonias
TTITLE1=Fire On The Mountain
TTITLE2=Way To Go Home
TTITLE3=Crazy Fingers
TTITLE4=Estimate Prophet
TTITLE5=Drums
EXTD=
EXTT0=
EXTT1=
EXTT2=
EXTT3=
EXTT4=
EXTT5=
PLAYORDER=
